<svg width="305" height="400" viewBox="0 0 305 400" fill="none" xmlns="http://www.w3.org/2000/svg">
<path d="M200.906 229.998H124.106C82.2059 229.998 73.9059 204.698 87.5059 173.898L101.906 141.198C101.906 141.198 132.506 139.998 162.506 149.998C192.506 159.998 220.806 141.098 220.806 141.098L222.706 139.898L237.606 173.998C251.006 204.798 242.206 229.998 200.906 229.998Z" fill="#DEE8FF"/>
<path d="M196.903 77.4H195.303L216.603 126L212.503 128.6C212.303 128.7 189.703 143.2 167.203 135.8C143.703 127.9 120.103 126.5 108.503 126.3L129.903 77.4H126.903C120.403 77.4 114.403 74.8 110.103 70.5C105.803 66.2 103.203 60.2 103.203 53.7C103.203 40.7 113.803 30 126.903 30L198.003 30C204.603 30 210.503 32.7 214.803 37C220.403 42.6 223.303 50.8 221.103 59.5C218.503 70.3 208.103 77.4 196.903 77.4Z" fill="#DEE8FF"/>
<path d="M190.893 227.5L114.093 227.5C87.2926 227.5 75.0926 217.5 69.6926 209.2C61.7926 197 62.0926 180.3 70.5926 160.9L108.893 73.9C103.593 72.5 98.6926 69.7 94.7926 65.8C89.0926 60 85.6926 52 85.6926 43.7C85.6926 26.5 99.6926 12.5 116.893 12.5L187.993 12.5C196.293 12.5 204.193 15.8 210.093 21.7C217.893 29.5 220.993 40.6 218.393 51.3C215.793 62 206.993 70.5 196.193 73.6L234.393 161C242.793 180.3 243.093 197 235.093 209.2C229.693 217.5 217.493 227.5 190.893 227.5ZM116.893 27.5C107.993 27.5 100.693 34.8 100.693 43.7C100.693 48 102.493 52.2 105.393 55.2C108.393 58.2 112.593 59.9 116.893 59.9H119.893C122.393 59.9 124.793 61.2 126.193 63.3C127.593 65.4 127.793 68.1 126.793 70.4L84.2926 166.9C77.9926 181.3 77.1926 193.4 82.1926 201C88.3926 210.5 102.893 212.5 113.993 212.5L190.793 212.5C201.793 212.5 216.193 210.5 222.493 201C227.493 193.3 226.793 181.3 220.593 167L178.493 70.4C177.493 68.1 177.693 65.4 179.093 63.3C180.493 61.2 182.793 59.9 185.393 59.9H186.993C194.993 59.9 202.193 54.8 203.893 47.7C205.293 42 203.693 36.4 199.593 32.3C196.493 29.2 192.393 27.5 188.093 27.5L116.893 27.5Z" fill="#5C69F8"/>
<path d="M170.906 150.402C164.306 150.402 157.206 149.502 150.106 147.102C121.706 137.602 92.4055 138.602 92.1055 138.602C88.1055 139.202 84.5055 135.502 84.3055 131.402C84.1055 127.302 87.4055 123.802 91.5055 123.602C92.8055 123.502 123.906 122.502 154.806 132.802C180.805 141.502 206.305 125.002 206.605 124.802C210.006 122.502 214.706 123.502 217.006 126.902C219.306 130.302 218.406 135.002 214.906 137.302C214.005 138.002 195.006 150.402 170.906 150.402Z" fill="#5C69F8"/>
<path d="M34.6 316V240.04H50.32V303.4H78.76V316H34.6ZM105.627 240.04V316H90.1469V240.04H105.627ZM165.274 298C169.754 281.6 175.754 262.28 183.274 240.04H206.074V316H190.234V254.32C186.474 270.56 180.314 291.12 171.754 316H158.674C149.634 288.56 143.514 268.2 140.314 254.92V316H124.834V240.04H146.674C154.194 260.52 160.394 279.84 165.274 298ZM272.304 246.28C270.864 248.44 268.624 251.68 265.584 256C259.184 253.2 253.464 251.8 248.424 251.8C241.784 251.8 238.464 254.28 238.464 259.24C238.464 261.48 239.224 263.24 240.744 264.52C242.264 265.8 245.424 267.36 250.224 269.2C258.864 272.56 265.064 276.2 268.824 280.12C272.664 284.04 274.584 288.76 274.584 294.28C274.584 302.04 271.664 308.04 265.824 312.28C261.024 315.72 255.064 317.44 247.944 317.44C239.544 317.44 230.584 314.4 221.064 308.32L228.024 298.6C232.664 301.72 238.624 303.28 245.904 303.28C254.144 303.28 258.264 299.96 258.264 293.32C258.264 289 253.824 285.32 244.944 282.28C230.624 277.48 223.464 269.8 223.464 259.24C223.464 252.84 225.864 247.76 230.664 244C235.144 240.4 241.104 238.6 248.544 238.6C257.024 238.6 264.944 241.16 272.304 246.28Z" fill="#5C69F8"/>
<path d="M68.9073 362L64.1873 348H65.7073L70.1273 361.18H69.3673L73.9273 348H75.2873L79.7873 361.18H79.0673L83.5273 348H84.9473L80.2273 362H78.6673L74.3673 349.5H74.7673L70.4473 362H68.9073ZM91.0201 362.1C89.9267 362.1 88.9667 361.873 88.1401 361.42C87.3134 360.953 86.6667 360.32 86.2001 359.52C85.7334 358.707 85.5001 357.78 85.5001 356.74C85.5001 355.7 85.7201 354.78 86.1601 353.98C86.6134 353.18 87.2267 352.553 88.0001 352.1C88.7867 351.633 89.6667 351.4 90.6401 351.4C91.6267 351.4 92.5001 351.627 93.2601 352.08C94.0334 352.52 94.6401 353.147 95.0801 353.96C95.5201 354.76 95.7401 355.687 95.7401 356.74C95.7401 356.807 95.7334 356.88 95.7201 356.96C95.7201 357.027 95.7201 357.1 95.7201 357.18H86.5801V356.12H94.9601L94.4001 356.54C94.4001 355.78 94.2334 355.107 93.9001 354.52C93.5801 353.92 93.1401 353.453 92.5801 353.12C92.0201 352.787 91.3734 352.62 90.6401 352.62C89.9201 352.62 89.2734 352.787 88.7001 353.12C88.1267 353.453 87.6801 353.92 87.3601 354.52C87.0401 355.12 86.8801 355.807 86.8801 356.58V356.8C86.8801 357.6 87.0534 358.307 87.4001 358.92C87.7601 359.52 88.2534 359.993 88.8801 360.34C89.5201 360.673 90.2467 360.84 91.0601 360.84C91.7001 360.84 92.2934 360.727 92.8401 360.5C93.4001 360.273 93.8801 359.927 94.2801 359.46L95.0801 360.38C94.6134 360.94 94.0267 361.367 93.3201 361.66C92.6267 361.953 91.8601 362.1 91.0201 362.1ZM98.6304 362V347.16H100.05V362H98.6304ZM108.361 362.1C107.321 362.1 106.388 361.873 105.561 361.42C104.748 360.953 104.108 360.32 103.641 359.52C103.175 358.707 102.941 357.78 102.941 356.74C102.941 355.687 103.175 354.76 103.641 353.96C104.108 353.16 104.748 352.533 105.561 352.08C106.388 351.627 107.321 351.4 108.361 351.4C109.255 351.4 110.061 351.573 110.781 351.92C111.501 352.267 112.068 352.787 112.481 353.48L111.421 354.2C111.061 353.667 110.615 353.273 110.081 353.02C109.548 352.767 108.968 352.64 108.341 352.64C107.595 352.64 106.921 352.813 106.321 353.16C105.721 353.493 105.248 353.967 104.901 354.58C104.555 355.193 104.381 355.913 104.381 356.74C104.381 357.567 104.555 358.287 104.901 358.9C105.248 359.513 105.721 359.993 106.321 360.34C106.921 360.673 107.595 360.84 108.341 360.84C108.968 360.84 109.548 360.713 110.081 360.46C110.615 360.207 111.061 359.82 111.421 359.3L112.481 360.02C112.068 360.7 111.501 361.22 110.781 361.58C110.061 361.927 109.255 362.1 108.361 362.1ZM119.375 362.1C118.362 362.1 117.449 361.873 116.635 361.42C115.835 360.953 115.202 360.32 114.735 359.52C114.269 358.707 114.035 357.78 114.035 356.74C114.035 355.687 114.269 354.76 114.735 353.96C115.202 353.16 115.835 352.533 116.635 352.08C117.435 351.627 118.349 351.4 119.375 351.4C120.415 351.4 121.335 351.627 122.135 352.08C122.949 352.533 123.582 353.16 124.035 353.96C124.502 354.76 124.735 355.687 124.735 356.74C124.735 357.78 124.502 358.707 124.035 359.52C123.582 360.32 122.949 360.953 122.135 361.42C121.322 361.873 120.402 362.1 119.375 362.1ZM119.375 360.84C120.135 360.84 120.809 360.673 121.395 360.34C121.982 359.993 122.442 359.513 122.775 358.9C123.122 358.273 123.295 357.553 123.295 356.74C123.295 355.913 123.122 355.193 122.775 354.58C122.442 353.967 121.982 353.493 121.395 353.16C120.809 352.813 120.142 352.64 119.395 352.64C118.649 352.64 117.982 352.813 117.395 353.16C116.809 353.493 116.342 353.967 115.995 354.58C115.649 355.193 115.475 355.913 115.475 356.74C115.475 357.553 115.649 358.273 115.995 358.9C116.342 359.513 116.809 359.993 117.395 360.34C117.982 360.673 118.642 360.84 119.375 360.84ZM140.754 351.4C141.608 351.4 142.348 351.567 142.974 351.9C143.614 352.22 144.108 352.713 144.454 353.38C144.814 354.047 144.994 354.887 144.994 355.9V362H143.574V356.04C143.574 354.933 143.308 354.1 142.774 353.54C142.254 352.967 141.514 352.68 140.554 352.68C139.834 352.68 139.208 352.833 138.674 353.14C138.154 353.433 137.748 353.867 137.454 354.44C137.174 355 137.034 355.68 137.034 356.48V362H135.614V356.04C135.614 354.933 135.348 354.1 134.814 353.54C134.281 352.967 133.534 352.68 132.574 352.68C131.868 352.68 131.248 352.833 130.714 353.14C130.181 353.433 129.768 353.867 129.474 354.44C129.194 355 129.054 355.68 129.054 356.48V362H127.634V351.5H128.994V354.34L128.774 353.84C129.094 353.08 129.608 352.487 130.314 352.06C131.034 351.62 131.881 351.4 132.854 351.4C133.881 351.4 134.754 351.66 135.474 352.18C136.194 352.687 136.661 353.453 136.874 354.48L136.314 354.26C136.621 353.407 137.161 352.72 137.934 352.2C138.721 351.667 139.661 351.4 140.754 351.4ZM153.305 362.1C152.212 362.1 151.252 361.873 150.425 361.42C149.599 360.953 148.952 360.32 148.485 359.52C148.019 358.707 147.785 357.78 147.785 356.74C147.785 355.7 148.005 354.78 148.445 353.98C148.899 353.18 149.512 352.553 150.285 352.1C151.072 351.633 151.952 351.4 152.925 351.4C153.912 351.4 154.785 351.627 155.545 352.08C156.319 352.52 156.925 353.147 157.365 353.96C157.805 354.76 158.025 355.687 158.025 356.74C158.025 356.807 158.019 356.88 158.005 356.96C158.005 357.027 158.005 357.1 158.005 357.18H148.865V356.12H157.245L156.685 356.54C156.685 355.78 156.519 355.107 156.185 354.52C155.865 353.92 155.425 353.453 154.865 353.12C154.305 352.787 153.659 352.62 152.925 352.62C152.205 352.62 151.559 352.787 150.985 353.12C150.412 353.453 149.965 353.92 149.645 354.52C149.325 355.12 149.165 355.807 149.165 356.58V356.8C149.165 357.6 149.339 358.307 149.685 358.92C150.045 359.52 150.539 359.993 151.165 360.34C151.805 360.673 152.532 360.84 153.345 360.84C153.985 360.84 154.579 360.727 155.125 360.5C155.685 360.273 156.165 359.927 156.565 359.46L157.365 360.38C156.899 360.94 156.312 361.367 155.605 361.66C154.912 361.953 154.145 362.1 153.305 362.1ZM169.17 362V349.28H164.25V348H175.57V349.28H170.65V362H169.17ZM180.821 362.1C179.807 362.1 178.894 361.873 178.081 361.42C177.281 360.953 176.647 360.32 176.181 359.52C175.714 358.707 175.481 357.78 175.481 356.74C175.481 355.687 175.714 354.76 176.181 353.96C176.647 353.16 177.281 352.533 178.081 352.08C178.881 351.627 179.794 351.4 180.821 351.4C181.861 351.4 182.781 351.627 183.581 352.08C184.394 352.533 185.027 353.16 185.481 353.96C185.947 354.76 186.181 355.687 186.181 356.74C186.181 357.78 185.947 358.707 185.481 359.52C185.027 360.32 184.394 360.953 183.581 361.42C182.767 361.873 181.847 362.1 180.821 362.1ZM180.821 360.84C181.581 360.84 182.254 360.673 182.841 360.34C183.427 359.993 183.887 359.513 184.221 358.9C184.567 358.273 184.741 357.553 184.741 356.74C184.741 355.913 184.567 355.193 184.221 354.58C183.887 353.967 183.427 353.493 182.841 353.16C182.254 352.813 181.587 352.64 180.841 352.64C180.094 352.64 179.427 352.813 178.841 353.16C178.254 353.493 177.787 353.967 177.441 354.58C177.094 355.193 176.921 355.913 176.921 356.74C176.921 357.553 177.094 358.273 177.441 358.9C177.787 359.513 178.254 359.993 178.841 360.34C179.427 360.673 180.087 360.84 180.821 360.84ZM194.614 362V348H196.094V360.72H203.934V362H194.614ZM206.391 362V348H207.871V362H206.391ZM212.426 362V348H213.646L220.046 358.92H219.406L225.746 348H226.966V362H225.546V350.22H225.886L220.046 360.22H219.346L213.466 350.22H213.846V362H212.426ZM235.388 362.12C234.348 362.12 233.348 361.953 232.388 361.62C231.441 361.273 230.708 360.833 230.188 360.3L230.768 359.16C231.261 359.64 231.921 360.047 232.748 360.38C233.588 360.7 234.468 360.86 235.388 360.86C236.268 360.86 236.981 360.753 237.528 360.54C238.088 360.313 238.495 360.013 238.748 359.64C239.015 359.267 239.148 358.853 239.148 358.4C239.148 357.853 238.988 357.413 238.668 357.08C238.361 356.747 237.955 356.487 237.448 356.3C236.941 356.1 236.381 355.927 235.768 355.78C235.155 355.633 234.541 355.48 233.928 355.32C233.315 355.147 232.748 354.92 232.228 354.64C231.721 354.36 231.308 353.993 230.988 353.54C230.681 353.073 230.528 352.467 230.528 351.72C230.528 351.027 230.708 350.393 231.068 349.82C231.441 349.233 232.008 348.767 232.768 348.42C233.528 348.06 234.501 347.88 235.688 347.88C236.475 347.88 237.255 347.993 238.028 348.22C238.801 348.433 239.468 348.733 240.028 349.12L239.528 350.3C238.928 349.9 238.288 349.607 237.608 349.42C236.941 349.233 236.295 349.14 235.668 349.14C234.828 349.14 234.135 349.253 233.588 349.48C233.041 349.707 232.635 350.013 232.368 350.4C232.115 350.773 231.988 351.2 231.988 351.68C231.988 352.227 232.141 352.667 232.448 353C232.768 353.333 233.181 353.593 233.688 353.78C234.208 353.967 234.775 354.133 235.388 354.28C236.001 354.427 236.608 354.587 237.208 354.76C237.821 354.933 238.381 355.16 238.888 355.44C239.408 355.707 239.821 356.067 240.128 356.52C240.448 356.973 240.608 357.567 240.608 358.3C240.608 358.98 240.421 359.613 240.048 360.2C239.675 360.773 239.101 361.24 238.328 361.6C237.568 361.947 236.588 362.12 235.388 362.12ZM2.73898 392V378H4.21898V390.72H12.059V392H2.73898ZM18.3401 392.1C17.3267 392.1 16.4134 391.873 15.6001 391.42C14.8001 390.953 14.1667 390.32 13.7001 389.52C13.2334 388.707 13.0001 387.78 13.0001 386.74C13.0001 385.687 13.2334 384.76 13.7001 383.96C14.1667 383.16 14.8001 382.533 15.6001 382.08C16.4001 381.627 17.3134 381.4 18.3401 381.4C19.3801 381.4 20.3001 381.627 21.1001 382.08C21.9134 382.533 22.5467 383.16 23.0001 383.96C23.4667 384.76 23.7001 385.687 23.7001 386.74C23.7001 387.78 23.4667 388.707 23.0001 389.52C22.5467 390.32 21.9134 390.953 21.1001 391.42C20.2867 391.873 19.3667 392.1 18.3401 392.1ZM18.3401 390.84C19.1001 390.84 19.7734 390.673 20.3601 390.34C20.9467 389.993 21.4067 389.513 21.7401 388.9C22.0867 388.273 22.2601 387.553 22.2601 386.74C22.2601 385.913 22.0867 385.193 21.7401 384.58C21.4067 383.967 20.9467 383.493 20.3601 383.16C19.7734 382.813 19.1067 382.64 18.3601 382.64C17.6134 382.64 16.9467 382.813 16.3601 383.16C15.7734 383.493 15.3067 383.967 14.9601 384.58C14.6134 385.193 14.4401 385.913 14.4401 386.74C14.4401 387.553 14.6134 388.273 14.9601 388.9C15.3067 389.513 15.7734 389.993 16.3601 390.34C16.9467 390.673 17.6067 390.84 18.3401 390.84ZM31.0791 395.98C30.1191 395.98 29.1991 395.84 28.3191 395.56C27.4391 395.28 26.7258 394.88 26.1791 394.36L26.8991 393.28C27.3925 393.72 27.9991 394.067 28.7191 394.32C29.4525 394.587 30.2258 394.72 31.0391 394.72C32.3725 394.72 33.3525 394.407 33.9791 393.78C34.6058 393.167 34.9191 392.207 34.9191 390.9V388.28L35.1191 386.48L34.9791 384.68V381.5H36.3391V390.72C36.3391 392.533 35.8925 393.86 34.9991 394.7C34.1191 395.553 32.8125 395.98 31.0791 395.98ZM30.8191 391.6C29.8191 391.6 28.9191 391.387 28.1191 390.96C27.3191 390.52 26.6858 389.913 26.2191 389.14C25.7658 388.367 25.5391 387.48 25.5391 386.48C25.5391 385.48 25.7658 384.6 26.2191 383.84C26.6858 383.067 27.3191 382.467 28.1191 382.04C28.9191 381.613 29.8191 381.4 30.8191 381.4C31.7525 381.4 32.5925 381.593 33.3391 381.98C34.0858 382.367 34.6791 382.94 35.1191 383.7C35.5591 384.46 35.7791 385.387 35.7791 386.48C35.7791 387.573 35.5591 388.5 35.1191 389.26C34.6791 390.02 34.0858 390.6 33.3391 391C32.5925 391.4 31.7525 391.6 30.8191 391.6ZM30.9591 390.34C31.7325 390.34 32.4191 390.18 33.0191 389.86C33.6191 389.527 34.0925 389.073 34.4391 388.5C34.7858 387.913 34.9591 387.24 34.9591 386.48C34.9591 385.72 34.7858 385.053 34.4391 384.48C34.0925 383.907 33.6191 383.46 33.0191 383.14C32.4191 382.807 31.7325 382.64 30.9591 382.64C30.1991 382.64 29.5125 382.807 28.8991 383.14C28.2991 383.46 27.8258 383.907 27.4791 384.48C27.1458 385.053 26.9791 385.72 26.9791 386.48C26.9791 387.24 27.1458 387.913 27.4791 388.5C27.8258 389.073 28.2991 389.527 28.8991 389.86C29.5125 390.18 30.1991 390.34 30.9591 390.34ZM45.8249 392V378H47.3049V392H45.8249ZM56.9201 381.4C57.7734 381.4 58.5201 381.567 59.1601 381.9C59.8134 382.22 60.3201 382.713 60.6801 383.38C61.0534 384.047 61.2401 384.887 61.2401 385.9V392H59.8201V386.04C59.8201 384.933 59.5401 384.1 58.9801 383.54C58.4334 382.967 57.6601 382.68 56.6601 382.68C55.9134 382.68 55.2601 382.833 54.7001 383.14C54.1534 383.433 53.7267 383.867 53.4201 384.44C53.1267 385 52.9801 385.68 52.9801 386.48V392H51.5601V381.5H52.9201V384.38L52.7001 383.84C53.0334 383.08 53.5667 382.487 54.3001 382.06C55.0334 381.62 55.9067 381.4 56.9201 381.4ZM73.3301 392V379.28H68.4101V378H79.7301V379.28H74.8101V392H73.3301ZM84.9807 392.1C83.9674 392.1 83.054 391.873 82.2407 391.42C81.4407 390.953 80.8074 390.32 80.3407 389.52C79.874 388.707 79.6407 387.78 79.6407 386.74C79.6407 385.687 79.874 384.76 80.3407 383.96C80.8074 383.16 81.4407 382.533 82.2407 382.08C83.0407 381.627 83.954 381.4 84.9807 381.4C86.0207 381.4 86.9407 381.627 87.7407 382.08C88.554 382.533 89.1874 383.16 89.6407 383.96C90.1074 384.76 90.3407 385.687 90.3407 386.74C90.3407 387.78 90.1074 388.707 89.6407 389.52C89.1874 390.32 88.554 390.953 87.7407 391.42C86.9274 391.873 86.0074 392.1 84.9807 392.1ZM84.9807 390.84C85.7407 390.84 86.414 390.673 87.0007 390.34C87.5874 389.993 88.0474 389.513 88.3807 388.9C88.7274 388.273 88.9007 387.553 88.9007 386.74C88.9007 385.913 88.7274 385.193 88.3807 384.58C88.0474 383.967 87.5874 383.493 87.0007 383.16C86.414 382.813 85.7474 382.64 85.0007 382.64C84.254 382.64 83.5874 382.813 83.0007 383.16C82.414 383.493 81.9474 383.967 81.6007 384.58C81.254 385.193 81.0807 385.913 81.0807 386.74C81.0807 387.553 81.254 388.273 81.6007 388.9C81.9474 389.513 82.414 389.993 83.0007 390.34C83.5874 390.673 84.2474 390.84 84.9807 390.84ZM96.5341 392L102.934 378H104.394L110.794 392H109.234L103.354 378.86H103.954L98.0741 392H96.5341ZM99.0541 388.26L99.4941 387.06H107.634L108.074 388.26H99.0541ZM117.072 392.1C116.032 392.1 115.099 391.873 114.272 391.42C113.459 390.953 112.819 390.32 112.352 389.52C111.886 388.707 111.652 387.78 111.652 386.74C111.652 385.687 111.886 384.76 112.352 383.96C112.819 383.16 113.459 382.533 114.272 382.08C115.099 381.627 116.032 381.4 117.072 381.4C117.966 381.4 118.772 381.573 119.492 381.92C120.212 382.267 120.779 382.787 121.192 383.48L120.132 384.2C119.772 383.667 119.326 383.273 118.792 383.02C118.259 382.767 117.679 382.64 117.052 382.64C116.306 382.64 115.632 382.813 115.032 383.16C114.432 383.493 113.959 383.967 113.612 384.58C113.266 385.193 113.092 385.913 113.092 386.74C113.092 387.567 113.266 388.287 113.612 388.9C113.959 389.513 114.432 389.993 115.032 390.34C115.632 390.673 116.306 390.84 117.052 390.84C117.679 390.84 118.259 390.713 118.792 390.46C119.326 390.207 119.772 389.82 120.132 389.3L121.192 390.02C120.779 390.7 120.212 391.22 119.492 391.58C118.772 391.927 117.966 392.1 117.072 392.1ZM128.166 392.1C127.126 392.1 126.193 391.873 125.366 391.42C124.553 390.953 123.913 390.32 123.446 389.52C122.98 388.707 122.746 387.78 122.746 386.74C122.746 385.687 122.98 384.76 123.446 383.96C123.913 383.16 124.553 382.533 125.366 382.08C126.193 381.627 127.126 381.4 128.166 381.4C129.06 381.4 129.866 381.573 130.586 381.92C131.306 382.267 131.873 382.787 132.286 383.48L131.226 384.2C130.866 383.667 130.42 383.273 129.886 383.02C129.353 382.767 128.773 382.64 128.146 382.64C127.4 382.64 126.726 382.813 126.126 383.16C125.526 383.493 125.053 383.967 124.706 384.58C124.36 385.193 124.186 385.913 124.186 386.74C124.186 387.567 124.36 388.287 124.706 388.9C125.053 389.513 125.526 389.993 126.126 390.34C126.726 390.673 127.4 390.84 128.146 390.84C128.773 390.84 129.353 390.713 129.886 390.46C130.42 390.207 130.866 389.82 131.226 389.3L132.286 390.02C131.873 390.7 131.306 391.22 130.586 391.58C129.866 391.927 129.06 392.1 128.166 392.1ZM139.36 392.1C138.267 392.1 137.307 391.873 136.48 391.42C135.653 390.953 135.007 390.32 134.54 389.52C134.073 388.707 133.84 387.78 133.84 386.74C133.84 385.7 134.06 384.78 134.5 383.98C134.953 383.18 135.567 382.553 136.34 382.1C137.127 381.633 138.007 381.4 138.98 381.4C139.967 381.4 140.84 381.627 141.6 382.08C142.373 382.52 142.98 383.147 143.42 383.96C143.86 384.76 144.08 385.687 144.08 386.74C144.08 386.807 144.073 386.88 144.06 386.96C144.06 387.027 144.06 387.1 144.06 387.18H134.92V386.12H143.3L142.74 386.54C142.74 385.78 142.573 385.107 142.24 384.52C141.92 383.92 141.48 383.453 140.92 383.12C140.36 382.787 139.713 382.62 138.98 382.62C138.26 382.62 137.613 382.787 137.04 383.12C136.467 383.453 136.02 383.92 135.7 384.52C135.38 385.12 135.22 385.807 135.22 386.58V386.8C135.22 387.6 135.393 388.307 135.74 388.92C136.1 389.52 136.593 389.993 137.22 390.34C137.86 390.673 138.587 390.84 139.4 390.84C140.04 390.84 140.633 390.727 141.18 390.5C141.74 390.273 142.22 389.927 142.62 389.46L143.42 390.38C142.953 390.94 142.367 391.367 141.66 391.66C140.967 391.953 140.2 392.1 139.36 392.1ZM149.79 392.1C148.924 392.1 148.104 391.98 147.33 391.74C146.557 391.487 145.95 391.173 145.51 390.8L146.15 389.68C146.577 390 147.124 390.28 147.79 390.52C148.457 390.747 149.157 390.86 149.89 390.86C150.89 390.86 151.61 390.707 152.05 390.4C152.49 390.08 152.71 389.66 152.71 389.14C152.71 388.753 152.584 388.453 152.33 388.24C152.09 388.013 151.77 387.847 151.37 387.74C150.97 387.62 150.524 387.52 150.03 387.44C149.537 387.36 149.044 387.267 148.55 387.16C148.07 387.053 147.63 386.9 147.23 386.7C146.83 386.487 146.504 386.2 146.25 385.84C146.01 385.48 145.89 385 145.89 384.4C145.89 383.827 146.05 383.313 146.37 382.86C146.69 382.407 147.157 382.053 147.77 381.8C148.397 381.533 149.157 381.4 150.05 381.4C150.73 381.4 151.41 381.493 152.09 381.68C152.77 381.853 153.33 382.087 153.77 382.38L153.15 383.52C152.684 383.2 152.184 382.973 151.65 382.84C151.117 382.693 150.584 382.62 150.05 382.62C149.104 382.62 148.404 382.787 147.95 383.12C147.51 383.44 147.29 383.853 147.29 384.36C147.29 384.76 147.41 385.073 147.65 385.3C147.904 385.527 148.23 385.707 148.63 385.84C149.044 385.96 149.49 386.06 149.97 386.14C150.464 386.22 150.95 386.32 151.43 386.44C151.924 386.547 152.37 386.7 152.77 386.9C153.184 387.087 153.51 387.36 153.75 387.72C154.004 388.067 154.13 388.527 154.13 389.1C154.13 389.713 153.957 390.247 153.61 390.7C153.277 391.14 152.784 391.487 152.13 391.74C151.49 391.98 150.71 392.1 149.79 392.1ZM159.556 392.1C158.689 392.1 157.869 391.98 157.096 391.74C156.323 391.487 155.716 391.173 155.276 390.8L155.916 389.68C156.343 390 156.889 390.28 157.556 390.52C158.223 390.747 158.923 390.86 159.656 390.86C160.656 390.86 161.376 390.707 161.816 390.4C162.256 390.08 162.476 389.66 162.476 389.14C162.476 388.753 162.349 388.453 162.096 388.24C161.856 388.013 161.536 387.847 161.136 387.74C160.736 387.62 160.289 387.52 159.796 387.44C159.303 387.36 158.809 387.267 158.316 387.16C157.836 387.053 157.396 386.9 156.996 386.7C156.596 386.487 156.269 386.2 156.016 385.84C155.776 385.48 155.656 385 155.656 384.4C155.656 383.827 155.816 383.313 156.136 382.86C156.456 382.407 156.923 382.053 157.536 381.8C158.163 381.533 158.923 381.4 159.816 381.4C160.496 381.4 161.176 381.493 161.856 381.68C162.536 381.853 163.096 382.087 163.536 382.38L162.916 383.52C162.449 383.2 161.949 382.973 161.416 382.84C160.883 382.693 160.349 382.62 159.816 382.62C158.869 382.62 158.169 382.787 157.716 383.12C157.276 383.44 157.056 383.853 157.056 384.36C157.056 384.76 157.176 385.073 157.416 385.3C157.669 385.527 157.996 385.707 158.396 385.84C158.809 385.96 159.256 386.06 159.736 386.14C160.229 386.22 160.716 386.32 161.196 386.44C161.689 386.547 162.136 386.7 162.536 386.9C162.949 387.087 163.276 387.36 163.516 387.72C163.769 388.067 163.896 388.527 163.896 389.1C163.896 389.713 163.723 390.247 163.376 390.7C163.043 391.14 162.549 391.487 161.896 391.74C161.256 391.98 160.476 392.1 159.556 392.1ZM175.376 392V386.8L175.716 387.72L169.776 378H171.356L176.576 386.54H175.736L180.956 378H182.436L176.496 387.72L176.836 386.8V392H175.376ZM187.52 392.1C186.506 392.1 185.593 391.873 184.78 391.42C183.98 390.953 183.346 390.32 182.88 389.52C182.413 388.707 182.18 387.78 182.18 386.74C182.18 385.687 182.413 384.76 182.88 383.96C183.346 383.16 183.98 382.533 184.78 382.08C185.58 381.627 186.493 381.4 187.52 381.4C188.56 381.4 189.48 381.627 190.28 382.08C191.093 382.533 191.726 383.16 192.18 383.96C192.646 384.76 192.88 385.687 192.88 386.74C192.88 387.78 192.646 388.707 192.18 389.52C191.726 390.32 191.093 390.953 190.28 391.42C189.466 391.873 188.546 392.1 187.52 392.1ZM187.52 390.84C188.28 390.84 188.953 390.673 189.54 390.34C190.126 389.993 190.586 389.513 190.92 388.9C191.266 388.273 191.44 387.553 191.44 386.74C191.44 385.913 191.266 385.193 190.92 384.58C190.586 383.967 190.126 383.493 189.54 383.16C188.953 382.813 188.286 382.64 187.54 382.64C186.793 382.64 186.126 382.813 185.54 383.16C184.953 383.493 184.486 383.967 184.14 384.58C183.793 385.193 183.62 385.913 183.62 386.74C183.62 387.553 183.793 388.273 184.14 388.9C184.486 389.513 184.953 389.993 185.54 390.34C186.126 390.673 186.786 390.84 187.52 390.84ZM200.119 392.1C199.225 392.1 198.445 391.933 197.779 391.6C197.112 391.267 196.592 390.767 196.219 390.1C195.859 389.433 195.679 388.6 195.679 387.6V381.5H197.099V387.44C197.099 388.56 197.372 389.407 197.919 389.98C198.479 390.54 199.259 390.82 200.259 390.82C200.992 390.82 201.625 390.673 202.159 390.38C202.705 390.073 203.119 389.633 203.399 389.06C203.692 388.487 203.839 387.8 203.839 387V381.5H205.259V392H203.899V389.12L204.119 389.64C203.785 390.413 203.265 391.02 202.559 391.46C201.865 391.887 201.052 392.1 200.119 392.1ZM209.216 392V381.5H210.576V384.36L210.436 383.86C210.73 383.06 211.223 382.453 211.916 382.04C212.61 381.613 213.47 381.4 214.496 381.4V382.78C214.443 382.78 214.39 382.78 214.336 382.78C214.283 382.767 214.23 382.76 214.176 382.76C213.07 382.76 212.203 383.1 211.576 383.78C210.95 384.447 210.636 385.4 210.636 386.64V392H209.216ZM220.538 392L226.938 378H228.398L234.798 392H233.238L227.358 378.86H227.958L222.078 392H220.538ZM223.058 388.26L223.498 387.06H231.638L232.078 388.26H223.058ZM241.076 392.1C240.036 392.1 239.103 391.873 238.276 391.42C237.463 390.953 236.823 390.32 236.356 389.52C235.89 388.707 235.656 387.78 235.656 386.74C235.656 385.687 235.89 384.76 236.356 383.96C236.823 383.16 237.463 382.533 238.276 382.08C239.103 381.627 240.036 381.4 241.076 381.4C241.97 381.4 242.776 381.573 243.496 381.92C244.216 382.267 244.783 382.787 245.196 383.48L244.136 384.2C243.776 383.667 243.33 383.273 242.796 383.02C242.263 382.767 241.683 382.64 241.056 382.64C240.31 382.64 239.636 382.813 239.036 383.16C238.436 383.493 237.963 383.967 237.616 384.58C237.27 385.193 237.096 385.913 237.096 386.74C237.096 387.567 237.27 388.287 237.616 388.9C237.963 389.513 238.436 389.993 239.036 390.34C239.636 390.673 240.31 390.84 241.056 390.84C241.683 390.84 242.263 390.713 242.796 390.46C243.33 390.207 243.776 389.82 244.136 389.3L245.196 390.02C244.783 390.7 244.216 391.22 243.496 391.58C242.776 391.927 241.97 392.1 241.076 392.1ZM252.17 392.1C251.13 392.1 250.197 391.873 249.37 391.42C248.557 390.953 247.917 390.32 247.45 389.52C246.983 388.707 246.75 387.78 246.75 386.74C246.75 385.687 246.983 384.76 247.45 383.96C247.917 383.16 248.557 382.533 249.37 382.08C250.197 381.627 251.13 381.4 252.17 381.4C253.063 381.4 253.87 381.573 254.59 381.92C255.31 382.267 255.877 382.787 256.29 383.48L255.23 384.2C254.87 383.667 254.423 383.273 253.89 383.02C253.357 382.767 252.777 382.64 252.15 382.64C251.403 382.64 250.73 382.813 250.13 383.16C249.53 383.493 249.057 383.967 248.71 384.58C248.363 385.193 248.19 385.913 248.19 386.74C248.19 387.567 248.363 388.287 248.71 388.9C249.057 389.513 249.53 389.993 250.13 390.34C250.73 390.673 251.403 390.84 252.15 390.84C252.777 390.84 253.357 390.713 253.89 390.46C254.423 390.207 254.87 389.82 255.23 389.3L256.29 390.02C255.877 390.7 255.31 391.22 254.59 391.58C253.87 391.927 253.063 392.1 252.17 392.1ZM263.184 392.1C262.17 392.1 261.257 391.873 260.444 391.42C259.644 390.953 259.01 390.32 258.544 389.52C258.077 388.707 257.844 387.78 257.844 386.74C257.844 385.687 258.077 384.76 258.544 383.96C259.01 383.16 259.644 382.533 260.444 382.08C261.244 381.627 262.157 381.4 263.184 381.4C264.224 381.4 265.144 381.627 265.944 382.08C266.757 382.533 267.39 383.16 267.844 383.96C268.31 384.76 268.544 385.687 268.544 386.74C268.544 387.78 268.31 388.707 267.844 389.52C267.39 390.32 266.757 390.953 265.944 391.42C265.13 391.873 264.21 392.1 263.184 392.1ZM263.184 390.84C263.944 390.84 264.617 390.673 265.204 390.34C265.79 389.993 266.25 389.513 266.584 388.9C266.93 388.273 267.104 387.553 267.104 386.74C267.104 385.913 266.93 385.193 266.584 384.58C266.25 383.967 265.79 383.493 265.204 383.16C264.617 382.813 263.95 382.64 263.204 382.64C262.457 382.64 261.79 382.813 261.204 383.16C260.617 383.493 260.15 383.967 259.804 384.58C259.457 385.193 259.284 385.913 259.284 386.74C259.284 387.553 259.457 388.273 259.804 388.9C260.15 389.513 260.617 389.993 261.204 390.34C261.79 390.673 262.45 390.84 263.184 390.84ZM275.783 392.1C274.89 392.1 274.11 391.933 273.443 391.6C272.776 391.267 272.256 390.767 271.883 390.1C271.523 389.433 271.343 388.6 271.343 387.6V381.5H272.763V387.44C272.763 388.56 273.036 389.407 273.583 389.98C274.143 390.54 274.923 390.82 275.923 390.82C276.656 390.82 277.29 390.673 277.823 390.38C278.37 390.073 278.783 389.633 279.063 389.06C279.356 388.487 279.503 387.8 279.503 387V381.5H280.923V392H279.563V389.12L279.783 389.64C279.45 390.413 278.93 391.02 278.223 391.46C277.53 391.887 276.716 392.1 275.783 392.1ZM290.24 381.4C291.094 381.4 291.84 381.567 292.48 381.9C293.134 382.22 293.64 382.713 294 383.38C294.374 384.047 294.56 384.887 294.56 385.9V392H293.14V386.04C293.14 384.933 292.86 384.1 292.3 383.54C291.754 382.967 290.98 382.68 289.98 382.68C289.234 382.68 288.58 382.833 288.02 383.14C287.474 383.433 287.047 383.867 286.74 384.44C286.447 385 286.3 385.68 286.3 386.48V392H284.88V381.5H286.24V384.38L286.02 383.84C286.354 383.08 286.887 382.487 287.62 382.06C288.354 381.62 289.227 381.4 290.24 381.4ZM301.716 392.1C300.729 392.1 299.969 391.833 299.436 391.3C298.903 390.767 298.636 390.013 298.636 389.04V379.18H300.056V388.96C300.056 389.573 300.209 390.047 300.516 390.38C300.836 390.713 301.289 390.88 301.876 390.88C302.503 390.88 303.023 390.7 303.436 390.34L303.936 391.36C303.656 391.613 303.316 391.8 302.916 391.92C302.529 392.04 302.129 392.1 301.716 392.1ZM296.756 382.68V381.5H303.256V382.68H296.756Z" fill="#181818"/>
</svg>
