<svg width="256" height="256" viewBox="0 0 256 256" fill="none" xmlns="http://www.w3.org/2000/svg">
<g clip-path="url(#clip0_1943_218060)">
<path d="M6.5408 143.786C2.50112 139.749 0 134.165 0 128.001C0 115.672 9.99936 105.678 22.3283 105.678H26.0557C27.2282 105.678 28.3802 105.588 29.504 105.414L26.9261 107.055C25.9814 107.531 25.1264 108.164 24.4045 108.919C22.8096 110.578 21.8266 112.836 21.8266 115.321V150.319C15.8618 150.191 10.473 147.721 6.5408 143.786Z" fill="url(#paint0_linear_1943_218060)"/>
<path d="M44.5781 95.8191C45.0824 95.0716 45.5407 94.2933 45.9528 93.4844L46.2396 94.7618L44.5807 95.8191H44.5781Z" fill="url(#paint1_linear_1943_218060)"/>
<path d="M249.459 201.515C253.499 205.554 256 211.135 256 217.3C256 229.629 246.001 239.626 233.672 239.626H22.3283C16.1638 239.626 10.5805 237.127 6.5408 233.087C2.50112 229.045 0 223.464 0 217.3C0 205.14 9.73056 195.248 21.8266 194.984V217.402C21.8266 222.509 25.9686 226.649 31.0758 226.649H208.96C214.067 226.649 218.209 222.509 218.209 217.402V194.977H233.674C239.839 194.977 245.422 197.475 249.462 201.517L249.459 201.515Z" fill="url(#paint2_linear_1943_218060)"/>
<path d="M249.459 112.215C253.499 116.255 256 121.836 256 128C256 140.332 246.001 150.326 233.672 150.326H230.118C227.302 145.436 223.173 141.402 218.209 138.704V115.321C218.209 110.969 215.199 107.313 211.146 106.335L210.117 105.68H233.674C239.839 105.68 245.422 108.178 249.462 112.218L249.459 112.215Z" fill="url(#paint3_linear_1943_218060)"/>
<path d="M6.5408 54.487C2.50112 50.4499 0 44.8717 0 38.7072C0 26.3782 9.99936 16.3789 22.3283 16.3789H233.674C239.839 16.3789 245.422 18.88 249.462 22.9197C253.501 26.9594 256.003 32.5427 256.003 38.7072C256.003 51.0362 246.003 61.0304 233.674 61.0304H160.561C157.448 61.0304 154.483 61.6678 151.793 62.8198H68.1063C66.4346 62.8198 64.9728 63.9232 64.5146 65.5258L62.0186 74.2502L47.6058 76.8512C47.5469 76.8614 47.488 76.8717 47.4291 76.887C46.3539 73.321 44.4109 70.1363 41.8432 67.5686C37.801 63.529 32.2202 61.0304 26.0557 61.0304H22.3283C16.1638 61.0304 10.5805 58.5293 6.5408 54.4896V54.487Z" fill="url(#paint4_linear_1943_218060)"/>
<path d="M24.5825 99.0244C33.3201 99.0244 40.4033 91.9412 40.4033 83.2036C40.4033 74.466 33.3201 67.3828 24.5825 67.3828C15.8449 67.3828 8.76172 74.466 8.76172 83.2036C8.76172 91.9412 15.8449 99.0244 24.5825 99.0244Z" fill="url(#paint5_linear_1943_218060)"/>
<path d="M233.926 83.1985C233.926 91.9383 226.848 99.0193 218.111 99.0193H199.663L190.555 93.2209L191.19 67.3828H218.111C226.848 67.3828 233.926 74.4612 233.926 83.1985Z" fill="url(#paint6_linear_1943_218060)"/>
<path opacity="0.75" d="M211.144 106.336C210.446 106.162 209.716 106.073 208.961 106.073H190.234L190.554 93.2266L211.144 106.336Z" fill="url(#paint7_linear_1943_218060)"/>
<path opacity="0.75" d="M48.7677 106.074H31.0755C29.5805 106.074 28.1725 106.428 26.9258 107.057L46.241 94.7617L48.7703 106.072L48.7677 106.074Z" fill="url(#paint8_linear_1943_218060)"/>
<path d="M203.652 135.018C208.926 135.018 213.884 136.354 218.211 138.707V115.324C218.211 110.972 215.2 107.316 211.148 106.34C210.446 106.164 209.717 106.074 208.962 106.074H31.0774C29.5798 106.074 28.1744 106.427 26.9251 107.057C23.9017 108.575 21.8281 111.711 21.8281 115.324V217.398C21.8281 222.508 25.9676 226.648 31.0774 226.648H208.962C214.071 226.648 218.211 222.508 218.211 217.398V192.369C217.814 192.587 217.415 192.794 217.008 192.991C212.976 194.963 208.442 196.063 203.652 196.063C186.795 196.063 173.129 182.398 173.129 165.538C173.129 158.106 175.787 151.294 180.205 146C185.799 139.288 194.226 135.018 203.652 135.018ZM182.699 204.022C182.699 203.062 183.477 202.287 184.437 202.287H203.217C204.177 202.287 204.953 203.062 204.953 204.022V209.38C204.953 210.34 204.177 211.119 203.217 211.119H184.437C183.477 211.119 182.699 210.34 182.699 209.38V204.022ZM73.9497 206.431C73.9497 208.51 72.2652 210.195 70.1865 210.195H38.3324C36.2563 210.195 34.5692 208.51 34.5692 206.431V174.577C34.5692 172.501 36.2563 170.811 38.3324 170.811H70.1865C72.2652 170.811 73.9497 172.501 73.9497 174.577V206.431ZM145.653 135.908C144.014 137.549 141.749 138.561 139.25 138.561H98.8176C93.8179 138.561 89.7628 134.508 89.7628 129.503C89.7628 127 90.7792 124.739 92.4176 123.101C94.0534 121.46 96.3216 120.446 98.8176 120.446H139.25C144.252 120.446 148.307 124.501 148.307 129.503C148.307 132.004 147.291 134.27 145.653 135.908ZM176.206 202.287C177.166 202.287 177.942 203.062 177.942 204.022V209.38C177.942 210.34 177.166 211.119 176.206 211.119H157.424C156.464 211.119 155.688 210.34 155.688 209.38V204.022C155.688 203.062 156.464 202.287 157.424 202.287H176.206Z" fill="url(#paint9_linear_1943_218060)"/>
<path d="M203.652 135.018C208.926 135.018 213.884 136.354 218.211 138.707V115.324C218.211 110.972 215.2 107.316 211.148 106.34C210.446 106.164 209.717 106.074 208.962 106.074H31.0774C29.5798 106.074 28.1744 106.427 26.9251 107.057C23.9017 108.575 21.8281 111.711 21.8281 115.324V217.398C21.8281 222.508 25.9676 226.648 31.0774 226.648H208.962C214.071 226.648 218.211 222.508 218.211 217.398V192.369C217.814 192.587 217.415 192.794 217.008 192.991C212.976 194.963 208.442 196.063 203.652 196.063C186.795 196.063 173.129 182.398 173.129 165.538C173.129 158.106 175.787 151.294 180.205 146C185.799 139.288 194.226 135.018 203.652 135.018ZM182.699 204.022C182.699 203.062 183.477 202.287 184.437 202.287H203.217C204.177 202.287 204.953 203.062 204.953 204.022V209.38C204.953 210.34 204.177 211.119 203.217 211.119H184.437C183.477 211.119 182.699 210.34 182.699 209.38V204.022ZM73.9497 206.431C73.9497 208.51 72.2652 210.195 70.1865 210.195H38.3324C36.2563 210.195 34.5692 208.51 34.5692 206.431V174.577C34.5692 172.501 36.2563 170.811 38.3324 170.811H70.1865C72.2652 170.811 73.9497 172.501 73.9497 174.577V206.431ZM145.653 135.908C144.014 137.549 141.749 138.561 139.25 138.561H98.8176C93.8179 138.561 89.7628 134.508 89.7628 129.503C89.7628 127 90.7792 124.739 92.4176 123.101C94.0534 121.46 96.3216 120.446 98.8176 120.446H139.25C144.252 120.446 148.307 124.501 148.307 129.503C148.307 132.004 147.291 134.27 145.653 135.908ZM176.206 202.287C177.166 202.287 177.942 203.062 177.942 204.022V209.38C177.942 210.34 177.166 211.119 176.206 211.119H157.424C156.464 211.119 155.688 210.34 155.688 209.38V204.022C155.688 203.062 156.464 202.287 157.424 202.287H176.206Z" fill="url(#paint10_linear_1943_218060)"/>
<path d="M204.949 204.021V209.379C204.949 210.339 204.174 211.117 203.214 211.117H184.434C183.474 211.117 182.695 210.339 182.695 209.379V204.021C182.695 203.061 183.474 202.285 184.434 202.285H203.214C204.174 202.285 204.949 203.061 204.949 204.021Z" fill="url(#paint11_linear_1943_218060)"/>
<path d="M177.942 204.021V209.379C177.942 210.339 177.166 211.117 176.206 211.117H157.423C156.463 211.117 155.688 210.339 155.688 209.379V204.021C155.688 203.061 156.463 202.285 157.423 202.285H176.206C177.166 202.285 177.942 203.061 177.942 204.021Z" fill="url(#paint12_linear_1943_218060)"/>
<path d="M148.308 129.503C148.308 132.004 147.294 134.269 145.656 135.908C144.017 137.546 141.752 138.56 139.253 138.56H98.8203C93.8207 138.56 89.7656 134.505 89.7656 129.5C89.7656 126.999 90.7794 124.736 92.4178 123.097C94.0562 121.459 96.3218 120.445 98.8203 120.445H139.253C144.253 120.445 148.308 124.5 148.308 129.5V129.503Z" fill="url(#paint13_linear_1943_218060)"/>
<path d="M70.1863 170.809H38.3296C36.2512 170.809 34.5664 172.493 34.5664 174.572V206.428C34.5664 208.507 36.2512 210.192 38.3296 210.192H70.1863C72.2646 210.192 73.9494 208.507 73.9494 206.428V174.572C73.9494 172.493 72.2646 170.809 70.1863 170.809Z" fill="url(#paint14_linear_1943_218060)"/>
<path d="M110.18 206.41H82.089C81.664 206.41 81.321 206.067 81.321 205.642C81.321 205.217 81.664 204.874 82.089 204.874H110.18C110.605 204.874 110.948 205.217 110.948 205.642C110.948 206.067 110.605 206.41 110.18 206.41ZM110.18 199.585H82.089C81.664 199.585 81.321 199.242 81.321 198.817C81.321 198.392 81.664 198.049 82.089 198.049H110.18C110.605 198.049 110.948 198.392 110.948 198.817C110.948 199.242 110.605 199.585 110.18 199.585ZM110.18 192.758H82.089C81.664 192.758 81.321 192.415 81.321 191.99C81.321 191.565 81.664 191.222 82.089 191.222H110.18C110.605 191.222 110.948 191.565 110.948 191.99C110.948 192.415 110.605 192.758 110.18 192.758ZM140.984 218.168H21.8266C21.4016 218.168 21.0586 217.825 21.0586 217.4C21.0586 216.975 21.4016 216.632 21.8266 216.632H140.984C141.409 216.632 141.752 216.975 141.752 217.4C141.752 217.825 141.409 218.168 140.984 218.168ZM188.242 218.168H155.686C155.261 218.168 154.918 217.825 154.918 217.4C154.918 216.975 155.261 216.632 155.686 216.632H188.242C188.667 216.632 189.01 216.975 189.01 217.4C189.01 217.825 188.667 218.168 188.242 218.168ZM179.922 146.813H39.1552C38.7303 146.813 38.3872 146.47 38.3872 146.045C38.3872 145.62 38.7303 145.277 39.1552 145.277H179.922C180.347 145.277 180.69 145.62 180.69 146.045C180.69 146.47 180.347 146.813 179.922 146.813Z" fill="#A3E0FF"/>
<path d="M179.924 106.071H48.7703L46.241 94.7613L43.5914 82.8982C42.9668 80.1078 44.792 77.3584 47.6055 76.8515L62.0183 74.2505L95.3802 68.2294C97.6074 67.8249 99.8321 68.9641 100.81 71.0096L103.104 75.8147C104.041 77.7757 106.127 78.9123 108.28 78.6358L164.341 71.4857C166.738 71.1811 169.011 72.6173 169.761 74.9136L179.927 106.074L179.924 106.071Z" fill="url(#paint15_linear_1943_218060)"/>
<path d="M191.21 66.6462L190.554 93.2267L190.234 106.073H179.92L169.754 74.9124C169.004 72.6161 166.731 71.1799 164.335 71.4846L108.273 78.6346C106.121 78.9111 104.034 77.7745 103.097 75.8135L100.803 71.0084C99.8255 68.963 97.6008 67.8238 95.3736 68.2283L62.0117 74.2494L64.5077 65.5249C64.966 63.9198 66.4303 62.8164 68.0994 62.8164H187.472C189.569 62.8164 191.256 64.5444 191.205 66.641L191.21 66.6462Z" fill="url(#paint16_linear_1943_218060)"/>
<path d="M60.2844 57.2536C60.054 57.2536 59.8287 57.1512 59.6776 56.9566L51.2373 46.0613C50.9788 45.7259 51.0376 45.2446 51.3756 44.9835C51.7109 44.725 52.1922 44.7838 52.4533 45.1192L60.8936 56.0146C61.1522 56.3499 61.0933 56.8312 60.7554 57.0923C60.6146 57.1998 60.4508 57.2536 60.2869 57.2536H60.2844ZM65.8088 54.4914C65.3839 54.4914 65.0408 54.1483 65.0408 53.7234V42.5208C65.0408 42.0958 65.3839 41.7528 65.8088 41.7528C66.2338 41.7528 66.5768 42.0958 66.5768 42.5208V53.7234C66.5768 54.1483 66.2338 54.4914 65.8088 54.4914ZM171.55 54.4914C171.178 54.4914 170.853 54.2226 170.792 53.8462L166.053 24.5394C165.987 24.1195 166.271 23.7253 166.688 23.6587C167.105 23.5896 167.502 23.8763 167.569 24.2936L172.307 53.6005C172.374 54.0203 172.09 54.4146 171.673 54.4811C171.632 54.4888 171.591 54.4914 171.55 54.4914ZM178.92 54.4914C178.848 54.4914 178.774 54.4811 178.702 54.4606C178.295 54.3403 178.065 53.9128 178.185 53.5058L181.964 40.7672C182.084 40.3602 182.512 40.1298 182.919 40.2501C183.326 40.3704 183.556 40.7979 183.436 41.205L179.657 53.9435C179.557 54.2763 179.253 54.4939 178.92 54.4939V54.4914ZM163.877 53.109C163.657 53.109 163.44 53.0142 163.286 52.8325L155.094 43.0098C154.823 42.6846 154.866 42.2008 155.191 41.9269C155.516 41.6555 156.003 41.699 156.274 42.0242L164.466 51.8469C164.737 52.172 164.694 52.6558 164.369 52.9298C164.225 53.0501 164.051 53.109 163.877 53.109ZM184.752 55.8712C184.496 55.8712 184.247 55.7458 184.101 55.5128C183.876 55.1544 183.981 54.6808 184.339 54.453L195.388 47.4693C195.747 47.2414 196.22 47.349 196.448 47.7074C196.673 48.0658 196.569 48.5394 196.21 48.7672L185.161 55.7509C185.033 55.8302 184.892 55.8686 184.752 55.8686V55.8712ZM39.1541 88.9566C38.934 88.9566 38.7189 88.8645 38.5653 88.6827L28.6172 76.853C28.3432 76.5278 28.3868 76.044 28.7119 75.7701C29.037 75.4962 29.5208 75.5397 29.7948 75.8648L39.7429 87.6946C40.0168 88.0197 39.9733 88.5035 39.6482 88.7774C39.5048 88.8978 39.3282 88.9566 39.1541 88.9566ZM36.9423 92.4766H26.2133C25.7884 92.4766 25.4453 92.1336 25.4453 91.7086C25.4453 91.2837 25.7884 90.9406 26.2133 90.9406H36.9423C37.3672 90.9406 37.7103 91.2837 37.7103 91.7086C37.7103 92.1336 37.3672 92.4766 36.9423 92.4766Z" fill="#A3E0FF"/>
<path d="M234.172 165.535C234.172 177.602 227.168 188.037 217.005 192.985C212.973 194.957 208.439 196.057 203.649 196.057C186.794 196.057 173.129 182.392 173.129 165.532C173.129 158.1 175.784 151.288 180.202 145.994C185.796 139.282 194.223 135.012 203.649 135.012C220.509 135.012 234.175 148.677 234.175 165.532L234.172 165.535Z" fill="url(#paint17_linear_1943_218060)"/>
<path d="M217.687 176.675L214.786 179.575C213.821 180.541 212.254 180.541 211.289 179.575L203.653 171.939L196.014 179.575C195.051 180.541 193.485 180.541 192.517 179.575L189.616 176.675C188.649 175.707 188.649 174.141 189.616 173.175L197.253 165.542L189.616 157.903C188.651 156.937 188.649 155.373 189.616 154.406L192.517 151.505C193.482 150.54 195.049 150.54 196.014 151.505L203.653 159.144L211.289 151.505C212.254 150.54 213.821 150.54 214.786 151.505L217.687 154.406C218.654 155.373 218.652 156.937 217.687 157.903L210.05 165.542L217.687 173.175C218.654 174.141 218.654 175.707 217.687 176.675Z" fill="url(#paint18_linear_1943_218060)"/>
</g>
<defs>
<linearGradient id="paint0_linear_1943_218060" x1="14.7507" y1="31.1741" x2="14.7507" y2="233.985" gradientUnits="userSpaceOnUse">
<stop stop-color="#A3E0FF" stop-opacity="0.1"/>
<stop offset="1" stop-color="#A3E0FF" stop-opacity="0.25"/>
</linearGradient>
<linearGradient id="paint1_linear_1943_218060" x1="45.4076" y1="31.174" x2="45.4076" y2="233.985" gradientUnits="userSpaceOnUse">
<stop stop-color="#A3E0FF" stop-opacity="0.1"/>
<stop offset="1" stop-color="#A3E0FF" stop-opacity="0.25"/>
</linearGradient>
<linearGradient id="paint2_linear_1943_218060" x1="128" y1="31.1749" x2="128" y2="233.986" gradientUnits="userSpaceOnUse">
<stop stop-color="#A3E0FF" stop-opacity="0.1"/>
<stop offset="1" stop-color="#A3E0FF" stop-opacity="0.25"/>
</linearGradient>
<linearGradient id="paint3_linear_1943_218060" x1="233.057" y1="31.1734" x2="233.057" y2="233.984" gradientUnits="userSpaceOnUse">
<stop stop-color="#A3E0FF" stop-opacity="0.1"/>
<stop offset="1" stop-color="#A3E0FF" stop-opacity="0.25"/>
</linearGradient>
<linearGradient id="paint4_linear_1943_218060" x1="128" y1="31.1731" x2="128" y2="233.984" gradientUnits="userSpaceOnUse">
<stop stop-color="#A3E0FF" stop-opacity="0.1"/>
<stop offset="1" stop-color="#A3E0FF" stop-opacity="0.25"/>
</linearGradient>
<linearGradient id="paint5_linear_1943_218060" x1="24.5825" y1="31.1742" x2="24.5825" y2="233.985" gradientUnits="userSpaceOnUse">
<stop stop-color="#A3E0FF" stop-opacity="0.1"/>
<stop offset="1" stop-color="#A3E0FF" stop-opacity="0.25"/>
</linearGradient>
<linearGradient id="paint6_linear_1943_218060" x1="212.24" y1="31.1716" x2="212.24" y2="233.982" gradientUnits="userSpaceOnUse">
<stop stop-color="#A3E0FF" stop-opacity="0.1"/>
<stop offset="1" stop-color="#A3E0FF" stop-opacity="0.25"/>
</linearGradient>
<linearGradient id="paint7_linear_1943_218060" x1="200.692" y1="83.7238" x2="200.692" y2="118.038" gradientUnits="userSpaceOnUse">
<stop stop-color="#A3E0FF" stop-opacity="0.7"/>
<stop offset="1" stop-color="#A3E0FF"/>
</linearGradient>
<linearGradient id="paint8_linear_1943_218060" x1="37.8442" y1="83.7256" x2="37.8442" y2="118.04" gradientUnits="userSpaceOnUse">
<stop stop-color="#A3E0FF" stop-opacity="0.7"/>
<stop offset="1" stop-color="#A3E0FF"/>
</linearGradient>
<linearGradient id="paint9_linear_1943_218060" x1="120.019" y1="133.139" x2="120.019" y2="234.092" gradientUnits="userSpaceOnUse">
<stop stop-color="#A3E0FF" stop-opacity="0.25"/>
<stop offset="1" stop-color="#A3E0FF" stop-opacity="0.5"/>
</linearGradient>
<linearGradient id="paint10_linear_1943_218060" x1="119.996" y1="165.456" x2="122.349" y2="258.791" gradientUnits="userSpaceOnUse">
<stop stop-color="#A3E0FF" stop-opacity="0"/>
<stop offset="0.86" stop-color="#A3E0FF" stop-opacity="0.5"/>
</linearGradient>
<linearGradient id="paint11_linear_1943_218060" x1="182.695" y1="206.701" x2="204.949" y2="206.701" gradientUnits="userSpaceOnUse">
<stop stop-color="#A3E0FF" stop-opacity="0.1"/>
<stop offset="1" stop-color="#A3E0FF" stop-opacity="0.25"/>
</linearGradient>
<linearGradient id="paint12_linear_1943_218060" x1="155.687" y1="206.701" x2="177.942" y2="206.701" gradientUnits="userSpaceOnUse">
<stop stop-color="#A3E0FF" stop-opacity="0.1"/>
<stop offset="1" stop-color="#A3E0FF" stop-opacity="0.25"/>
</linearGradient>
<linearGradient id="paint13_linear_1943_218060" x1="119.037" y1="148.825" x2="119.037" y2="122.877" gradientUnits="userSpaceOnUse">
<stop stop-color="#A3E0FF" stop-opacity="0.8"/>
<stop offset="1" stop-color="#A3E0FF"/>
</linearGradient>
<linearGradient id="paint14_linear_1943_218060" x1="34.5664" y1="190.5" x2="73.9494" y2="190.5" gradientUnits="userSpaceOnUse">
<stop stop-color="#A3E0FF" stop-opacity="0.1"/>
<stop offset="1" stop-color="#A3E0FF" stop-opacity="0.25"/>
</linearGradient>
<linearGradient id="paint15_linear_1943_218060" x1="109.025" y1="74.2787" x2="113.991" y2="111.143" gradientUnits="userSpaceOnUse">
<stop stop-color="#A3E0FF" stop-opacity="0.25"/>
<stop offset="1" stop-color="#A3E0FF" stop-opacity="0.5"/>
</linearGradient>
<linearGradient id="paint16_linear_1943_218060" x1="126.708" y1="71.4359" x2="130.105" y2="111.961" gradientUnits="userSpaceOnUse">
<stop stop-color="#A3E0FF" stop-opacity="0.4"/>
<stop offset="1" stop-color="#A3E0FF"/>
</linearGradient>
<linearGradient id="paint17_linear_1943_218060" x1="200.951" y1="157.304" x2="222.388" y2="222.666" gradientUnits="userSpaceOnUse">
<stop stop-color="#A3E0FF" stop-opacity="0.25"/>
<stop offset="1" stop-color="#A3E0FF" stop-opacity="0.5"/>
</linearGradient>
<linearGradient id="paint18_linear_1943_218060" x1="203.65" y1="155.688" x2="203.65" y2="209.392" gradientUnits="userSpaceOnUse">
<stop stop-color="#A3E0FF" stop-opacity="0.7"/>
<stop offset="1" stop-color="#A3E0FF"/>
</linearGradient>
<clipPath id="clip0_1943_218060">
<rect width="256" height="256" fill="white"/>
</clipPath>
</defs>
</svg>
