<svg width="32" height="33" viewBox="0 0 32 33" fill="none" xmlns="http://www.w3.org/2000/svg">
<path d="M10.666 16.7667H19.9993" stroke="#5C69F8" stroke-width="1.5" stroke-miterlimit="10" stroke-linecap="round" stroke-linejoin="round"/>
<path d="M10.666 22.1H16.506" stroke="#5C69F8" stroke-width="1.5" stroke-miterlimit="10" stroke-linecap="round" stroke-linejoin="round"/>
<path d="M13.3327 8.49996H18.666C21.3327 8.49996 21.3327 7.16663 21.3327 5.83329C21.3327 3.16663 19.9993 3.16663 18.666 3.16663H13.3327C11.9993 3.16663 10.666 3.16663 10.666 5.83329C10.666 8.49996 11.9993 8.49996 13.3327 8.49996Z" stroke="#5C69F8" stroke-width="1.5" stroke-miterlimit="10" stroke-linecap="round" stroke-linejoin="round"/>
<path d="M21.3333 5.85999C25.7733 6.09999 28 7.73999 28 13.8333V21.8333C28 27.1667 26.6667 29.8333 20 29.8333H12C5.33333 29.8333 4 27.1667 4 21.8333V13.8333C4 7.75332 6.22667 6.09999 10.6667 5.85999" stroke="#5C69F8" stroke-width="1.5" stroke-miterlimit="10" stroke-linecap="round" stroke-linejoin="round"/>
</svg>
