<svg width="32" height="32" viewBox="0 0 32 32" fill="none" xmlns="http://www.w3.org/2000/svg">
<path d="M21.3327 10.6666H10.666V21.3333H21.3327V10.6666Z" stroke="#5C69F8" stroke-width="1.5" stroke-linecap="round" stroke-linejoin="round"/>
<path d="M6.66602 29.3334C8.86602 29.3334 10.666 27.5334 10.666 25.3334V21.3334H6.66602C4.46602 21.3334 2.66602 23.1334 2.66602 25.3334C2.66602 27.5334 4.46602 29.3334 6.66602 29.3334Z" stroke="#5C69F8" stroke-width="1.5" stroke-linecap="round" stroke-linejoin="round"/>
<path d="M6.66602 10.6666H10.666V6.66663C10.666 4.46663 8.86602 2.66663 6.66602 2.66663C4.46602 2.66663 2.66602 4.46663 2.66602 6.66663C2.66602 8.86663 4.46602 10.6666 6.66602 10.6666Z" stroke="#5C69F8" stroke-width="1.5" stroke-linecap="round" stroke-linejoin="round"/>
<path d="M21.334 10.6666H25.334C27.534 10.6666 29.334 8.86663 29.334 6.66663C29.334 4.46663 27.534 2.66663 25.334 2.66663C23.134 2.66663 21.334 4.46663 21.334 6.66663V10.6666Z" stroke="#5C69F8" stroke-width="1.5" stroke-linecap="round" stroke-linejoin="round"/>
<path d="M25.334 29.3334C27.534 29.3334 29.334 27.5334 29.334 25.3334C29.334 23.1334 27.534 21.3334 25.334 21.3334H21.334V25.3334C21.334 27.5334 23.134 29.3334 25.334 29.3334Z" stroke="#5C69F8" stroke-width="1.5" stroke-linecap="round" stroke-linejoin="round"/>
</svg>
