<svg width="32" height="32" viewBox="0 0 32 32" fill="none" xmlns="http://www.w3.org/2000/svg">
<path d="M21.3327 10.6667H10.666V21.3333H21.3327V10.6667Z" stroke="#5C69F8" stroke-width="1.5" stroke-linecap="round" stroke-linejoin="round"/>
<path d="M6.66602 29.3333C8.86602 29.3333 10.666 27.5333 10.666 25.3333V21.3333H6.66602C4.46602 21.3333 2.66602 23.1333 2.66602 25.3333C2.66602 27.5333 4.46602 29.3333 6.66602 29.3333Z" stroke="#5C69F8" stroke-width="1.5" stroke-linecap="round" stroke-linejoin="round"/>
<path d="M6.66602 10.6667H10.666V6.66666C10.666 4.46666 8.86602 2.66666 6.66602 2.66666C4.46602 2.66666 2.66602 4.46666 2.66602 6.66666C2.66602 8.86666 4.46602 10.6667 6.66602 10.6667Z" stroke="#5C69F8" stroke-width="1.5" stroke-linecap="round" stroke-linejoin="round"/>
<path d="M21.334 10.6667H25.334C27.534 10.6667 29.334 8.86666 29.334 6.66666C29.334 4.46666 27.534 2.66666 25.334 2.66666C23.134 2.66666 21.334 4.46666 21.334 6.66666V10.6667Z" stroke="#5C69F8" stroke-width="1.5" stroke-linecap="round" stroke-linejoin="round"/>
<path d="M25.334 29.3333C27.534 29.3333 29.334 27.5333 29.334 25.3333C29.334 23.1333 27.534 21.3333 25.334 21.3333H21.334V25.3333C21.334 27.5333 23.134 29.3333 25.334 29.3333Z" stroke="#5C69F8" stroke-width="1.5" stroke-linecap="round" stroke-linejoin="round"/>
</svg>
