<svg width="32" height="32" viewBox="0 0 32 32" fill="none" xmlns="http://www.w3.org/2000/svg">
<path d="M14.0001 26.5332V5.4665C14.0001 3.4665 13.1467 2.6665 11.0267 2.6665H5.64008C3.52008 2.6665 2.66675 3.4665 2.66675 5.4665V26.5332C2.66675 28.5332 3.52008 29.3332 5.64008 29.3332H11.0267C13.1467 29.3332 14.0001 28.5332 14.0001 26.5332Z" stroke="#5C69F8" stroke-width="1.5" stroke-linecap="round" stroke-linejoin="round"/>
<path d="M29.3333 14.5332V5.4665C29.3333 3.4665 28.48 2.6665 26.36 2.6665H20.9733C18.8533 2.6665 18 3.4665 18 5.4665V14.5332C18 16.5332 18.8533 17.3332 20.9733 17.3332H26.36C28.48 17.3332 29.3333 16.5332 29.3333 14.5332Z" stroke="#5C69F8" stroke-width="1.5" stroke-linecap="round" stroke-linejoin="round"/>
<path d="M29.3333 26.5335V24.1335C29.3333 22.1335 28.48 21.3335 26.36 21.3335H20.9733C18.8533 21.3335 18 22.1335 18 24.1335V26.5335C18 28.5335 18.8533 29.3335 20.9733 29.3335H26.36C28.48 29.3335 29.3333 28.5335 29.3333 26.5335Z" stroke="#5C69F8" stroke-width="1.5" stroke-linecap="round" stroke-linejoin="round"/>
</svg>
