<svg width="58" height="59" viewBox="0 0 58 59" fill="none" xmlns="http://www.w3.org/2000/svg">
<path d="M41.6641 10.668L18.3307 10.668C11.3307 10.668 6.66406 14.168 6.66406 22.3346L6.66406 38.668C6.66406 46.8346 11.3307 50.3346 18.3307 50.3346L41.6641 50.3346C48.6641 50.3346 53.3307 46.8346 53.3307 38.668L53.3307 22.3346C53.3307 14.168 48.6641 10.668 41.6641 10.668ZM42.7607 24.878L35.4574 30.7113C33.9174 31.948 31.9574 32.5546 29.9974 32.5546C28.0374 32.5546 26.0541 31.948 24.5374 30.7113L17.2341 24.878C16.4874 24.2713 16.3707 23.1513 16.9541 22.4046C17.5607 21.658 18.6574 21.518 19.4041 22.1246L26.7074 27.958C28.4807 29.3813 31.4907 29.3813 33.2641 27.958L40.5674 22.1246C41.3141 21.518 42.4341 21.6346 43.0174 22.4046C43.6241 23.1513 43.5074 24.2713 42.7607 24.878Z" fill="#DEE8FF"/>
<path d="M39.6641 50.0846L16.3307 50.0846C7.81406 50.0846 2.91406 45.1846 2.91406 36.668L2.91406 20.3346C2.91406 11.818 7.81406 6.91797 16.3307 6.91797L39.6641 6.91797C48.1807 6.91797 53.0807 11.818 53.0807 20.3346L53.0807 36.668C53.0807 45.1846 48.1807 50.0846 39.6641 50.0846ZM16.3307 10.418C9.6574 10.418 6.41406 13.6613 6.41406 20.3346L6.41406 36.668C6.41406 43.3413 9.6574 46.5846 16.3307 46.5846L39.6641 46.5846C46.3374 46.5846 49.5807 43.3413 49.5807 36.668L49.5807 20.3346C49.5807 13.6613 46.3374 10.418 39.6641 10.418L16.3307 10.418Z" fill="#5C69F8"/>
<path d="M28.0011 30.528C26.0411 30.528 24.0578 29.9213 22.5411 28.6846L15.2378 22.8513C14.4911 22.2446 14.3511 21.148 14.9578 20.4013C15.5645 19.6546 16.6611 19.5147 17.4078 20.1213L24.7111 25.9547C26.4844 27.378 29.4944 27.378 31.2678 25.9547L38.5711 20.1213C39.3178 19.5147 40.4378 19.6313 41.0211 20.4013C41.6278 21.148 41.5111 22.268 40.7411 22.8513L33.4378 28.6846C31.9444 29.9213 29.9611 30.528 28.0011 30.528Z" fill="#5C69F8"/>
</svg>
