<svg width="100" height="50" viewBox="0 0 100 50" fill="none" xmlns="http://www.w3.org/2000/svg">
<path d="M34.1802 46H18.8202C10.4402 46 8.7802 40.94 11.5002 34.78L14.3802 28.24C14.3802 28.24 20.5002 28 26.5002 30C32.5002 32 38.1602 28.22 38.1602 28.22L38.5402 27.98L41.5202 34.8C44.2002 40.96 42.4402 46 34.1802 46Z" fill="#DEE8FF"/>
<path d="M33.3801 15.48H33.0601L37.3201 25.2L36.5001 25.72C36.4601 25.74 31.9401 28.64 27.4401 27.16C22.7401 25.58 18.0201 25.3 15.7001 25.26L19.9801 15.48H19.3801C18.0801 15.48 16.8801 14.96 16.0201 14.1C15.1601 13.24 14.6401 12.04 14.6401 10.74C14.6401 8.14 16.7601 6 19.3801 6L33.6001 6C34.9201 6 36.1001 6.54 36.9601 7.4C38.0801 8.52 38.6601 10.16 38.2201 11.9C37.7001 14.06 35.6201 15.48 33.3801 15.48Z" fill="#DEE8FF"/>
<path d="M32.18 45.5L16.82 45.5C11.46 45.5 9.01999 43.5 7.93999 41.84C6.35999 39.4 6.41999 36.06 8.11999 32.18L15.78 14.78C14.72 14.5 13.74 13.94 12.96 13.16C11.82 12 11.14 10.4 11.14 8.74C11.14 5.3 13.94 2.5 17.38 2.5L31.6 2.5C33.26 2.5 34.84 3.16 36.02 4.34C37.58 5.9 38.2 8.12 37.68 10.26C37.16 12.4 35.4 14.1 33.24 14.72L40.88 32.2C42.56 36.06 42.62 39.4 41.02 41.84C39.94 43.5 37.5 45.5 32.18 45.5ZM17.38 5.5C15.6 5.5 14.14 6.96 14.14 8.74C14.14 9.6 14.5 10.44 15.08 11.04C15.68 11.64 16.52 11.98 17.38 11.98H17.98C18.48 11.98 18.96 12.24 19.24 12.66C19.52 13.08 19.56 13.62 19.36 14.08L10.86 33.38C9.59999 36.26 9.43999 38.68 10.44 40.2C11.68 42.1 14.58 42.5 16.8 42.5L32.16 42.5C34.36 42.5 37.24 42.1 38.5 40.2C39.5 38.66 39.36 36.26 38.12 33.4L29.7 14.08C29.5 13.62 29.54 13.08 29.82 12.66C30.1 12.24 30.56 11.98 31.08 11.98H31.4C33 11.98 34.44 10.96 34.78 9.54C35.06 8.4 34.74 7.28 33.92 6.46C33.3 5.84 32.48 5.5 31.62 5.5L17.38 5.5Z" fill="#5C69F8"/>
<path d="M28.1801 30.0802C26.8601 30.0802 25.4401 29.9002 24.0201 29.4202C18.3401 27.5202 12.4801 27.7202 12.4201 27.7202C11.6201 27.8402 10.9001 27.1002 10.8601 26.2802C10.8201 25.4602 11.4801 24.7602 12.3001 24.7202C12.5601 24.7002 18.7801 24.5002 24.9601 26.5602C30.1601 28.3002 35.2601 25.0002 35.3201 24.9602C36.0001 24.5002 36.9401 24.7002 37.4001 25.3802C37.8601 26.0602 37.6801 27.0002 36.9801 27.4602C36.8001 27.6002 33.0001 30.0802 28.1801 30.0802Z" fill="#5C69F8"/>
<path d="M50.42 31.5V16.308H53.564V28.98H59.252V31.5H50.42ZM64.6254 16.308V31.5H61.5294V16.308H64.6254ZM76.5549 27.9C77.4509 24.62 78.6509 20.756 80.1549 16.308H84.7149V31.5H81.5469V19.164C80.7949 22.412 79.5629 26.524 77.8509 31.5H75.2349C73.4269 26.012 72.2029 21.94 71.5629 19.284V31.5H68.4669V16.308H72.8349C74.3389 20.404 75.5789 24.268 76.5549 27.9ZM97.9608 17.556C97.6728 17.988 97.2248 18.636 96.6168 19.5C95.3368 18.94 94.1928 18.66 93.1848 18.66C91.8568 18.66 91.1928 19.156 91.1928 20.148C91.1928 20.596 91.3448 20.948 91.6488 21.204C91.9528 21.46 92.5848 21.772 93.5448 22.14C95.2728 22.812 96.5128 23.54 97.2648 24.324C98.0328 25.108 98.4168 26.052 98.4168 27.156C98.4168 28.708 97.8328 29.908 96.6648 30.756C95.7048 31.444 94.5128 31.788 93.0888 31.788C91.4088 31.788 89.6168 31.18 87.7128 29.964L89.1048 28.02C90.0328 28.644 91.2248 28.956 92.6808 28.956C94.3288 28.956 95.1528 28.292 95.1528 26.964C95.1528 26.1 94.2648 25.364 92.4888 24.756C89.6248 23.796 88.1928 22.26 88.1928 20.148C88.1928 18.868 88.6728 17.852 89.6328 17.1C90.5288 16.38 91.7208 16.02 93.2088 16.02C94.9048 16.02 96.4888 16.532 97.9608 17.556Z" fill="#5C69F8"/>
</svg>
