<svg width="32" height="32" viewBox="0 0 32 32" fill="none" xmlns="http://www.w3.org/2000/svg">
<path d="M10.8797 29.3334C5.30639 29.3334 4.18639 25.9601 5.99972 21.8534L11.6664 8.98675H11.2664C10.3997 8.98675 9.59972 8.64008 9.02639 8.06675C8.43972 7.49342 8.09306 6.69341 8.09306 5.82675C8.09306 4.09341 9.50639 2.66675 11.2531 2.66675H20.7331C21.6131 2.66675 22.3997 3.02675 22.9731 3.60008C23.7197 4.34675 24.0931 5.44008 23.8131 6.60008C23.4531 8.04008 22.0664 8.98675 20.5864 8.98675H20.3731L25.9997 21.8667C27.7997 25.9734 26.6264 29.3334 21.1064 29.3334H10.8797Z" stroke="#5C69F8" stroke-width="1.5" stroke-linecap="round" stroke-linejoin="round"/>
<path d="M7.91992 17.4933C7.91992 17.4933 11.9999 17.3333 15.9999 18.6666C19.9999 20 23.7733 17.48 23.7733 17.48" stroke="#5C69F8" stroke-width="1.5" stroke-linecap="round" stroke-linejoin="round"/>
</svg>
