<svg width="24" height="25" viewBox="0 0 24 25" fill="none" xmlns="http://www.w3.org/2000/svg">
<path d="M12.0192 3.91016C8.89677 3.91016 6.35922 6.60016 6.35922 9.91016V12.8002C6.35922 13.4102 6.11395 14.3402 5.82152 14.8602L4.73669 16.7702C4.06693 17.9502 4.52916 19.2602 5.75549 19.7002C9.82123 21.1402 14.2077 21.1402 18.2735 19.7002C19.4149 19.3002 19.9148 17.8702 19.2922 16.7702L18.2074 14.8602C17.9244 14.3402 17.6792 13.4102 17.6792 12.8002V9.91016C17.6792 6.61016 15.1322 3.91016 12.0192 3.91016Z" stroke="#5C69F8" stroke-width="1.5" stroke-miterlimit="10" stroke-linecap="round"/>
<path d="M13.7642 4.19994C13.4718 4.10994 13.1699 4.03994 12.8586 3.99994C11.953 3.87994 11.0852 3.94994 10.2739 4.19994C10.5475 3.45994 11.2267 2.93994 12.0191 2.93994C12.8115 2.93994 13.4907 3.45994 13.7642 4.19994Z" stroke="#5C69F8" stroke-width="1.5" stroke-miterlimit="10" stroke-linecap="round" stroke-linejoin="round"/>
<path d="M14.8489 20.0601C14.8489 21.7101 13.5754 23.0601 12.0189 23.0601C11.2454 23.0601 10.5285 22.7201 10.0191 22.1801C9.5097 21.6401 9.18896 20.8801 9.18896 20.0601" stroke="#5C69F8" stroke-width="1.5" stroke-miterlimit="10"/>
<ellipse cx="19.1865" cy="2" rx="1.88666" ry="2" fill="#FF4D4F"/>
</svg>
