<svg width="24" height="24" viewBox="0 0 24 24" fill="none" xmlns="http://www.w3.org/2000/svg">
<path d="M11.8809 2.38037C13.0971 2.11063 14.4136 2.30594 15.5654 2.57666H15.5664L17.2363 2.96631C19.5142 3.50179 20.8439 4.32358 21.5742 5.4917V5.49268C22.2956 6.66275 22.4485 8.21763 21.9131 10.4956L20.9336 14.6753C20.5155 16.4547 19.885 17.6996 19.0557 18.4976C18.2395 19.2827 17.1842 19.6801 15.8105 19.6802C15.5639 19.6802 15.3111 19.6709 15.042 19.6431V19.6421L15.0283 19.6411C14.541 19.6036 13.9786 19.5096 13.3896 19.3647L13.3857 19.3638L11.7061 18.9634H11.7051C9.45629 18.4317 8.07902 17.5961 7.36133 16.438C6.6886 15.3524 6.52855 13.8761 6.94531 11.8472L7.03711 11.4341L8.0166 7.24365L8.01758 7.24268C8.2318 6.31768 8.48025 5.58784 8.77734 4.99365L8.78027 4.98779C9.57251 3.35284 10.6976 2.64283 11.8809 2.38037ZM13.1201 2.75049C12.2151 2.75049 11.4329 2.93752 10.7715 3.35791C10.1109 3.77781 9.61347 4.40257 9.22949 5.20264C8.94988 5.78337 8.7097 6.48975 8.50391 7.354L8.50293 7.35596L7.52344 11.5454C7.07037 13.4697 7.0667 14.996 7.79395 16.1685C8.5208 17.3402 9.8911 18.0181 11.8145 18.4761L13.4932 18.8755V18.8765C14.057 19.0122 14.5921 19.096 15.0771 19.1382V19.1372C16.5136 19.2788 17.6866 19.0434 18.5986 18.2495C19.4907 17.4728 20.0497 16.2316 20.4375 14.563L20.4365 14.562L21.417 10.3843V10.3833C21.8756 8.41605 21.8521 6.89991 21.1455 5.75732C20.4386 4.61443 19.0933 3.91194 17.1133 3.45264H17.1143L15.4434 3.06299C14.5881 2.85714 13.8089 2.75049 13.1201 2.75049Z" fill="#616161" stroke="#616161"/>
<path d="M8.96094 4.85986C9.05992 4.83938 9.14412 4.87453 9.19824 4.94775C9.24365 5.00939 9.26152 5.0841 9.24902 5.15771L9.22559 5.23096C8.94687 5.80189 8.70846 6.50641 8.51367 7.3667L7.5332 11.5552C7.08012 13.4795 7.07642 15.0067 7.80371 16.1792C8.5306 17.3508 9.901 18.0289 11.8242 18.4868L13.5029 18.8853V18.8862C14.0654 19.0216 14.5989 19.1047 15.083 19.147V19.1479C15.1897 19.158 15.2788 19.2273 15.3154 19.3394C15.3411 19.4452 15.3017 19.548 15.2158 19.6079C14.608 20.0219 13.8263 20.3839 12.8057 20.7144L12.8037 20.7153L11.2236 21.2349C10.1082 21.5835 9.16263 21.7505 8.33008 21.7505C7.15609 21.7505 6.22812 21.4031 5.46777 20.7056C4.79039 20.0841 4.218 19.1587 3.74316 17.8774L3.5459 17.3062L2.26562 13.356C1.57342 11.2108 1.57576 9.64635 2.17578 8.47021C2.73832 7.36764 3.88358 6.49322 5.78418 5.81787L6.17383 5.68604L7.75293 5.17529C8.26943 5.01645 8.63061 4.91659 8.94434 4.86279L8.95312 4.86182L8.96094 4.85986ZM7.625 5.74463L6.33496 6.16455C4.51728 6.7503 3.24815 7.51211 2.63965 8.70654C2.03161 9.90048 2.15877 11.3802 2.74414 13.2026V13.2046L4.02441 17.1548C4.61523 18.9731 5.37962 20.244 6.57324 20.855C7.76725 21.466 9.24479 21.3422 11.0635 20.7563L11.0664 20.7554L12.6465 20.2349H12.6484C12.6857 20.2224 12.7193 20.2094 12.7461 20.1997C12.7741 20.1895 12.7958 20.1818 12.8184 20.1743L14.4883 19.6177L12.7744 19.2134L11.7148 18.9634C9.46616 18.4317 8.08875 17.5961 7.37109 16.438C6.6984 15.3523 6.53924 13.8762 6.95605 11.8472L7.04688 11.4341L8.02734 7.24365L8.02832 7.23682C8.09589 6.92796 8.17207 6.63428 8.25586 6.37354L8.55566 5.44189L7.625 5.74463Z" fill="#616161" stroke="#616161"/>
<path d="M12.6968 8.29395V8.29492L17.5474 9.52441H17.5483C17.6742 9.55588 17.7594 9.69001 17.7251 9.82812L17.7241 9.83203C17.7009 9.92778 17.5994 10.0098 17.4897 10.0098C17.4763 10.0098 17.463 10.0076 17.396 9.99805L12.5728 8.77539L12.5708 8.77441C12.445 8.74274 12.3605 8.60882 12.395 8.4707C12.4265 8.34549 12.5593 8.26068 12.6968 8.29395Z" fill="#616161" stroke="#616161"/>
<path d="M14.5601 13.8899C14.5001 13.8899 14.4401 13.8799 14.3701 13.8699L11.4601 13.1299C11.0601 13.0299 10.8201 12.6199 10.9201 12.2199C11.0201 11.8199 11.4301 11.5799 11.8301 11.6799L14.7401 12.4199C15.1401 12.5199 15.3801 12.9299 15.2801 13.3299C15.2001 13.6699 14.9001 13.8899 14.5601 13.8899Z" fill="#616161"/>
</svg>
