<svg width="32" height="32" viewBox="0 0 32 32" fill="none" xmlns="http://www.w3.org/2000/svg">
<path d="M16.2115 14.4933C16.0781 14.48 15.9181 14.48 15.7715 14.4933C12.5981 14.3866 10.0781 11.7866 10.0781 8.58663C10.0781 5.31996 12.7181 2.66663 15.9981 2.66663C19.2648 2.66663 21.9181 5.31996 21.9181 8.58663C21.9048 11.7866 19.3848 14.3866 16.2115 14.4933Z" stroke="#5C69F8" stroke-width="1.5" stroke-linecap="round" stroke-linejoin="round"/>
<path d="M9.545 19.4133C6.31833 21.5733 6.31833 25.0933 9.545 27.2399C13.2117 29.6933 19.225 29.6933 22.8917 27.2399C26.1183 25.0799 26.1183 21.5599 22.8917 19.4133C19.2383 16.9733 13.225 16.9733 9.545 19.4133Z" stroke="#5C69F8" stroke-width="1.5" stroke-linecap="round" stroke-linejoin="round"/>
</svg>
