<svg width="251" height="250" viewBox="0 0 251 250" fill="none" xmlns="http://www.w3.org/2000/svg">
<path d="M168.906 229.998H92.1059C50.2059 229.998 41.9059 204.698 55.5059 173.898L69.9059 141.198C69.9059 141.198 100.506 139.998 130.506 149.998C160.506 159.998 188.806 141.098 188.806 141.098L190.706 139.898L205.606 173.998C219.006 204.798 210.206 229.998 168.906 229.998Z" fill="#DEE8FF"/>
<path d="M164.903 77.4H163.303L184.603 126L180.503 128.6C180.303 128.7 157.703 143.2 135.203 135.8C111.703 127.9 88.1031 126.5 76.5031 126.3L97.9031 77.4H94.9031C88.4031 77.4 82.4031 74.8 78.1031 70.5C73.8031 66.2 71.2031 60.2 71.2031 53.7C71.2031 40.7 81.8031 30 94.9031 30L166.003 30C172.603 30 178.503 32.7 182.803 37C188.403 42.6 191.303 50.8 189.103 59.5C186.503 70.3 176.103 77.4 164.903 77.4Z" fill="#DEE8FF"/>
<path d="M158.893 227.5L82.0926 227.5C55.2926 227.5 43.0926 217.5 37.6926 209.2C29.7926 197 30.0926 180.3 38.5926 160.9L76.8926 73.9C71.5926 72.5 66.6926 69.7 62.7926 65.8C57.0926 60 53.6926 52 53.6926 43.7C53.6926 26.5 67.6926 12.5 84.8926 12.5L155.993 12.5C164.293 12.5 172.193 15.8 178.093 21.7C185.893 29.5 188.993 40.6 186.393 51.3C183.793 62 174.993 70.5 164.193 73.6L202.393 161C210.793 180.3 211.093 197 203.093 209.2C197.693 217.5 185.493 227.5 158.893 227.5ZM84.8926 27.5C75.9926 27.5 68.6926 34.8 68.6926 43.7C68.6926 48 70.4926 52.2 73.3926 55.2C76.3926 58.2 80.5926 59.9 84.8926 59.9H87.8926C90.3926 59.9 92.7926 61.2 94.1926 63.3C95.5926 65.4 95.7926 68.1 94.7926 70.4L52.2926 166.9C45.9926 181.3 45.1926 193.4 50.1926 201C56.3926 210.5 70.8926 212.5 81.9926 212.5L158.793 212.5C169.793 212.5 184.193 210.5 190.493 201C195.493 193.3 194.793 181.3 188.593 167L146.493 70.4C145.493 68.1 145.693 65.4 147.093 63.3C148.493 61.2 150.793 59.9 153.393 59.9H154.993C162.993 59.9 170.193 54.8 171.893 47.7C173.293 42 171.693 36.4 167.593 32.3C164.493 29.2 160.393 27.5 156.093 27.5L84.8926 27.5V27.5Z" fill="#5C69F8"/>
<path d="M138.906 150.406C132.306 150.406 125.206 149.506 118.106 147.106C89.7055 137.606 60.4055 138.606 60.1055 138.606C56.1055 139.206 52.5055 135.506 52.3055 131.406C52.1055 127.306 55.4055 123.806 59.5055 123.606C60.8055 123.506 91.9055 122.506 122.806 132.806C148.805 141.506 174.305 125.006 174.605 124.806C178.005 122.506 182.706 123.506 185.006 126.906C187.306 130.306 186.405 135.006 182.905 137.306C182.005 138.006 163.006 150.406 138.906 150.406Z" fill="#5C69F8"/>
</svg>
